# xmcd
# 
# Track frame offsets:
#     150
#     15722
#     28145
#     45000
#     59883
#     73734
#     93334
#     109534
#     121863
#     135609
#     147721
#     161770
#     175822
#     188782
#     200299
# 
# Disc length: 2882
# 
# Revision: 1
# Processed by: cddbd v1.5.2PL0 Copyright (c) Steve Scherf et al.
# Submitted via: fre:ac v1.1beta1pre5
# 
DISCID=d40b400f
DTITLE=Various Artist - The Ultimate Country Collection - CD08
DYEAR=2009
DGENRE=Country
TTITLE0=Martina McBride - Independence Day
TTITLE1=Pam Tillis - When You Walk In The Room
TTITLE2=Ricky Skaggs - Cajun Moon
TTITLE3=Rodney Crowell - I Couldn't Leave You If I Tried
TTITLE4=the Highwaymen - Highwayman
TTITLE5=Alan Jackson - Gone Country
TTITLE6=Travis Tritt - Honky-Tonk History
TTITLE7=Patsy Cline - A Poor Man's Roses (Or A Rich Man's Gold)
TTITLE8=Charley Pride - You Win Again
TTITLE9=Dolly Parton - Jolene
TTITLE10=George Jones - The Grand Tour
TTITLE11=Johnny Paycheck - Friend, Lover, Wife
TTITLE12=Marty Robbins - Devil Woman
TTITLE13=Ray Price - Crazy Arms
TTITLE14=Restless Heart - That Rock Won't Roll
EXTD=
EXTT0=
EXTT1=
EXTT2=
EXTT3=
EXTT4=
EXTT5=
EXTT6=
EXTT7=
EXTT8=
EXTT9=
EXTT10=
EXTT11=
EXTT12=
EXTT13=
EXTT14=
PLAYORDER=
